<svg width="200" height="201" viewBox="0 0 200 201" fill="none" xmlns="http://www.w3.org/2000/svg">
<g clip-path="url(#clip0_257_1425)">
<mask id="mask0_257_1425" style="mask-type:luminance" maskUnits="userSpaceOnUse" x="0" y="0" width="200" height="201">
<path d="M200 0.682495H0V200.682H200V0.682495Z" fill="white"/>
</mask>
<g mask="url(#mask0_257_1425)">
<path d="M116.571 39.3551L125.311 47.0324C125.994 47.6324 126.818 48.0497 127.707 48.2457L139.079 50.7514C140.843 51.1401 142.294 52.3857 142.94 54.0667L147.105 64.9031C147.43 65.7494 147.966 66.5004 148.662 67.0847L157.573 74.5647C158.955 75.7251 159.66 77.4991 159.449 79.2847L158.084 90.7967C157.977 91.6961 158.102 92.6081 158.446 93.4471L162.855 104.188C163.538 105.854 163.335 107.749 162.314 109.231L155.732 118.782C155.218 119.529 154.903 120.393 154.817 121.294L153.713 132.835C153.541 134.625 152.477 136.208 150.881 137.045L140.59 142.448C139.786 142.87 139.104 143.488 138.606 144.246L132.243 153.943C131.256 155.447 129.574 156.354 127.768 156.357L116.125 156.372C115.216 156.373 114.322 156.605 113.528 157.045L103.362 162.677C101.786 163.55 99.8718 163.574 98.2698 162.74L87.9431 157.365C87.1364 156.945 86.2361 156.737 85.3271 156.758L73.6884 157.035C71.8831 157.078 70.1754 156.213 69.1444 154.734L62.4991 145.2C61.9801 144.456 61.2794 143.854 60.4634 143.452L50.0184 138.31C48.3981 137.512 47.2878 135.957 47.0644 134.172L45.6224 122.664C45.5098 121.765 45.1698 120.908 44.6341 120.175L37.7751 110.792C36.7111 109.336 36.4528 107.447 37.0874 105.765L41.1798 94.9174C41.4994 94.0701 41.5974 93.1551 41.4644 92.2587L39.7631 80.7847C39.4991 79.0051 40.1518 77.2144 41.4994 76.0201L50.1881 68.3191C50.8668 67.7174 51.3808 66.9541 51.6811 66.0994L55.5271 55.1627C56.1234 53.4661 57.5374 52.1844 59.2898 51.7517L70.5844 48.9614C71.4668 48.7437 72.2784 48.3057 72.9434 47.6891L81.4554 39.7954C82.7758 38.5707 84.6274 38.0914 86.3824 38.5194L97.6958 41.2794C98.5794 41.4947 99.5034 41.4837 100.381 41.2461L111.609 38.2031C113.351 37.7311 115.216 38.1641 116.571 39.3551Z" fill="#23A948"/>
<path d="M71.7095 100.905L90.4228 119.619C90.4228 119.619 115.605 94.4364 124.9 85.1404" stroke="white" stroke-width="7" stroke-miterlimit="10"/>
<mask id="mask1_257_1425" style="mask-type:luminance" maskUnits="userSpaceOnUse" x="6" y="6" width="189" height="189">
<path d="M6.00146 6.68277H194.001V194.683H6.00146V6.68277Z" fill="white"/>
</mask>
<g mask="url(#mask1_257_1425)">
<path d="M97.3364 12.7189C97.3364 11.6037 97.3364 10.9128 97.3364 10.9128" stroke="#23A948" stroke-width="3.76" stroke-miterlimit="10"/>
<path d="M97.4941 185.596C97.4941 185.596 97.4941 184.905 97.4941 183.79" stroke="#23A948" stroke-width="3.76" stroke-miterlimit="10"/>
<path d="M182.952 98.176C184.067 98.176 184.758 98.176 184.758 98.176" stroke="#23A948" stroke-width="3.76" stroke-miterlimit="10"/>
<path d="M10.0723 98.3326C10.0723 98.3326 10.7632 98.3326 11.8783 98.3326" stroke="#23A948" stroke-width="3.76" stroke-miterlimit="10"/>
<path d="M157.952 158.682C158.74 159.47 159.229 159.959 159.229 159.959" stroke="#23A948" stroke-width="3.76" stroke-miterlimit="10"/>
<path d="M35.5981 36.5497C35.5981 36.5497 36.0866 37.0385 36.875 37.8269" stroke="#23A948" stroke-width="3.76" stroke-miterlimit="10"/>
<path d="M157.844 37.7161C158.633 36.9278 159.121 36.4393 159.121 36.4393" stroke="#23A948" stroke-width="3.76" stroke-miterlimit="10"/>
<path d="M35.7104 160.07C35.7104 160.07 36.1989 159.581 36.9873 158.793" stroke="#23A948" stroke-width="3.76" stroke-miterlimit="10"/>
</g>
</g>
</g>
<defs>
<clipPath id="clip0_257_1425">
<rect width="200" height="200" fill="white" transform="translate(0 0.5)"/>
</clipPath>
</defs>
</svg>
